<?xml version="1.0" standalone="no"?>
<!DOCTYPE svg PUBLIC "-//W3C//DTD SVG 20010904//EN"
 "http://www.w3.org/TR/2001/REC-SVG-20010904/DTD/svg10.dtd">
<svg version="1.0" xmlns="http://www.w3.org/2000/svg"
 width="261.000000pt" height="261.000000pt" viewBox="0 0 261.000000 261.000000"
 preserveAspectRatio="xMidYMid meet">
<metadata>
Created by potrace 1.11, written by Peter Selinger 2001-2013
</metadata>
<g transform="translate(0.000000,261.000000) scale(0.100000,-0.100000)"
fill="#000000" stroke="none">
<path d="M172 2585 c-66 -31 -117 -82 -148 -149 l-24 -51 0 -1075 0 -1075 24
-50 c34 -73 69 -110 138 -144 l61 -31 1077 0 1077 0 61 31 c69 34 104 71 138
144 l24 50 0 1076 0 1076 -31 61 c-32 65 -66 99 -133 135 l-41 22 -1085 2
-1085 3 -53 -25z"/>
</g>
</svg>
